<svg xmlns="http://www.w3.org/2000/svg" viewBox="0 0 640 360">
  <defs>
    <linearGradient id="sky" x1="0" y1="0" x2="1" y2="1">
      <stop stop-color="#29dcff"/>
      <stop offset=".38" stop-color="#563cff"/>
      <stop offset="1" stop-color="#ff4de2"/>
    </linearGradient>
    <linearGradient id="grid" x1="0" y1="0" x2="0" y2="1">
      <stop stop-color="#74f6ff"/>
      <stop offset="1" stop-color="#fb64ff"/>
    </linearGradient>
    <filter id="glow" x="-20%" y="-20%" width="140%" height="140%">
      <feGaussianBlur stdDeviation="5" result="b"/>
      <feMerge><feMergeNode in="b"/><feMergeNode in="SourceGraphic"/></feMerge>
    </filter>
  </defs>
  <rect width="640" height="360" rx="28" fill="url(#sky)" opacity=".38"/>
  <path d="M0 255c120-60 190-20 295-68 124-56 214-23 345-96v269H0z" fill="#111156" opacity=".55"/>
  <g opacity=".75" filter="url(#glow)">
    <path d="M88 235V136h36v99M142 235V96h42v139M205 235V154h34v81M258 235V74h54v161M333 235V120h38v115M391 235V58h58v177M468 235V100h46v135M535 235V132h38v103" fill="#1b1b75" stroke="#6ef4ff" stroke-width="2"/>
    <path d="M142 96l22-32 20 32M391 58l30-44 28 44" fill="#29259b" stroke="#ff68ed" stroke-width="2"/>
  </g>
  <g stroke="url(#grid)" stroke-width="1" opacity=".38">
    <path d="M0 304h640M0 332h640M50 360l170-125M170 360l96-125M300 360l24-125M445 360l-44-125M585 360L480 235"/>
  </g>
  <circle cx="528" cy="182" r="54" fill="rgba(255,255,255,.12)" stroke="#fff" stroke-width="3"/>
  <path d="M512 153l44 29-44 29z" fill="#fff"/>
</svg>
